<svg width="17" height="16" viewBox="0 0 17 16" fill="none" xmlns="http://www.w3.org/2000/svg">
<path d="M15.1892 11.1926C14.9608 11.3114 14.7108 11.4014 14.5072 11.5559C14.2208 11.7732 14.1082 12.0975 14.1181 12.4676C14.1446 13.4624 13.8251 14.3231 13.1315 15.0226C12.0091 16.1567 10.2691 16.3213 8.9729 15.4249C8.47294 15.0803 7.98954 15.0616 7.4631 15.4029C6.14534 16.2568 4.52297 16.0225 3.48829 15.0379C2.61585 14.2077 2.27647 13.1755 2.44864 11.9684C2.53473 11.3742 2.34766 10.9787 1.82784 10.7053C1.15902 10.3539 0.66072 9.83272 0.329623 9.14345C-0.259729 7.91262 -0.0445173 6.39997 0.861032 5.39154C1.19544 5.01804 1.58614 4.72944 2.04967 4.53929C2.6175 4.30671 2.92377 3.8687 2.96019 3.24055C3.01647 2.25758 3.40717 1.44439 4.13061 0.800958C5.25303 -0.19729 6.98136 -0.270292 8.18324 0.626094C8.59049 0.929982 9.06395 0.948657 9.48279 0.68042C10.044 0.320508 10.6598 0.17111 11.3154 0.201669C12.3104 0.249204 13.1364 0.677026 13.7573 1.46646C14.3218 2.18289 14.5552 3.02155 14.4608 3.9434C14.4062 4.48666 14.5833 4.84827 15.0651 5.08256C15.8216 5.45266 16.3795 6.02478 16.7189 6.80742C17.2536 8.04165 17.0235 9.54751 16.0451 10.5458C15.7951 10.8004 15.4905 10.999 15.2124 11.2248C15.2075 11.2163 15.1992 11.2045 15.1892 11.1926ZM10.3304 7.13168C10.2625 6.92286 10.0854 6.83119 9.9099 6.73102C9.63178 6.57314 9.35366 6.41186 9.09044 6.2319C8.90172 6.10287 8.71465 5.98573 8.48123 6.04515C8.3521 6.07741 8.21635 6.13004 8.11039 6.21153C7.80082 6.44581 7.44655 6.56974 7.08565 6.69198C6.84892 6.77177 6.65357 6.967 6.64032 7.25561C6.62046 7.7055 6.62543 8.15539 6.51948 8.59849C6.44995 8.8905 6.71151 9.24362 6.87706 9.3319C7.18829 9.49488 7.49455 9.66974 7.78426 9.87007C8.10708 10.0925 8.42163 10.1196 8.75272 9.91421C9.07554 9.71388 9.39008 9.50506 9.75429 9.37943C10.1648 9.23853 10.395 8.83108 10.3801 8.38458C10.3718 8.14521 10.3883 7.90244 10.4132 7.66476C10.4347 7.47462 10.4397 7.29805 10.3304 7.13168Z" fill="#F20079"/>
</svg>
