<svg width="493" height="268" viewBox="0 0 493 268" fill="none" xmlns="http://www.w3.org/2000/svg">
<path fill-rule="evenodd" clip-rule="evenodd" d="M241.197 259.858C241.882 260.115 242.335 260.638 242.788 261.169C243.561 261.648 244.272 262.179 244.459 263.154C245.508 265.378 244.708 267.061 242.424 267.043C230.983 267.072 219.548 267.055 208.109 267.038C205.242 267.033 202.374 267.029 199.507 267.026C199.142 267.043 198.787 267.052 198.431 267.026H198.076C197.987 267.026 197.898 266.98 197.809 266.935C197.774 266.917 197.738 266.899 197.702 266.884L197.534 266.902L197.4 266.795C195.667 265.945 195.214 264.217 196.334 262.569C196.787 261.896 197.391 261.364 198.147 261.027C200.653 259.264 202.386 256.863 203.817 254.205C203.971 253.567 204.134 252.931 204.297 252.296C204.81 250.292 205.323 248.29 205.559 246.231C206.029 239.907 205.677 233.603 205.326 227.296C205.278 226.446 205.231 225.596 205.186 224.746C204.715 215.93 200.475 209.746 192.29 206.282C192.12 206.213 191.963 206.112 191.806 206.012C191.743 205.971 191.679 205.931 191.615 205.892C187.638 204.858 183.606 204.946 179.575 205.034C177.976 205.069 176.377 205.103 174.782 205.068C172.865 205.608 170.958 206.156 169.05 206.705L169.041 206.707C168.623 207.177 168.099 207.425 167.476 207.478C166.921 207.877 166.368 208.276 165.814 208.674C165.261 209.073 164.708 209.472 164.153 209.87H164.135C163.864 210.127 163.595 210.386 163.326 210.646C163.057 210.905 162.788 211.164 162.517 211.421C162.269 211.713 162.011 212.005 161.754 212.297L161.753 212.298C161.354 212.86 160.952 213.423 160.551 213.987C160.148 214.553 159.745 215.119 159.344 215.682C159.033 216.444 158.722 217.197 158.402 217.951C158.154 218.899 157.905 219.844 157.656 220.79C157.407 221.736 157.158 222.682 156.909 223.63C156.607 229.282 156.456 234.935 157.291 240.57C158.251 244.521 159.718 248.269 161.78 251.787C161.726 251.813 161.691 251.866 161.655 251.919C161.691 251.875 161.735 251.831 161.779 251.787L161.78 251.787L161.788 251.804C165.29 256.305 169.92 259.362 174.906 261.975C175.475 262.277 176.035 262.587 176.444 263.207C176.518 263.318 176.595 263.426 176.672 263.534C177.186 264.26 177.665 264.936 177.093 265.9C176.497 266.902 175.546 267.043 174.471 267.034C171.113 267.019 167.755 267.016 164.396 267.012C161.88 267.009 159.364 267.007 156.847 266.999C153.256 266.987 149.665 266.96 146.072 266.932C144.267 266.918 142.461 266.905 140.654 266.893C140.121 266.902 139.579 266.902 139.046 266.902C138.477 267.088 137.935 267.105 137.428 266.742C136.85 266.6 136.557 266.211 136.442 265.652C135.944 264.793 136.068 263.987 136.619 263.207C136.788 262.226 137.458 261.586 138.124 260.949C138.162 260.913 138.199 260.877 138.237 260.841C138.619 260.159 139.117 259.583 139.748 259.131L141.481 256.766L141.49 256.748C141.637 256.519 141.784 256.29 141.932 256.06C142.309 255.471 142.688 254.88 143.072 254.294C148.289 244.158 149.995 233.136 151.337 222.008C151.496 220.754 151.618 219.494 151.74 218.232C151.965 215.902 152.191 213.569 152.652 211.27C152.617 211.04 152.634 210.818 152.768 210.615C153.052 205.494 153.719 200.417 154.465 195.349C154.475 195.045 154.45 194.738 154.425 194.43C154.361 193.641 154.297 192.85 154.821 192.124L154.818 192.021C154.792 191.071 154.765 190.116 155.194 189.227C155.398 185.449 155.858 181.698 156.318 177.947C156.6 175.646 156.882 173.345 157.105 171.037C157.139 170.905 157.171 170.77 157.203 170.634C157.229 170.524 157.255 170.413 157.283 170.302C157.238 169.567 157.22 168.831 157.602 168.158C157.921 163.316 158.508 158.503 159.096 153.691C159.362 151.512 159.628 149.333 159.869 147.151C160.144 144.656 160.453 142.164 160.762 139.674C160.931 138.309 161.101 136.944 161.264 135.58C161.305 135.108 161.344 134.635 161.383 134.163C161.635 131.117 161.887 128.071 162.526 125.072C162.539 124.806 162.551 124.538 162.562 124.27C162.573 124.002 162.584 123.734 162.597 123.468C162.737 122.261 162.851 121.051 162.966 119.841C163.238 116.965 163.51 114.09 164.117 111.259C164.135 110.87 164.155 110.482 164.175 110.094C164.195 109.707 164.215 109.319 164.233 108.929C164.512 106.478 164.789 104.026 165.066 101.575C165.765 95.3796 166.465 89.1857 167.21 82.9963C167.27 82.4867 167.289 81.9707 167.309 81.4542C167.35 80.3632 167.392 79.2699 167.814 78.2296C168.33 72.2846 168.916 66.3485 169.867 60.4566C169.989 59.1584 170.114 57.8601 170.238 56.5618C170.55 53.3149 170.862 50.0681 171.129 46.8212C171.313 44.5777 171.451 42.3342 171.589 40.0906C171.677 38.6484 171.766 37.2062 171.867 35.764C171.885 35.4992 171.973 35.2425 172.061 34.9856C172.102 34.8644 172.144 34.7432 172.178 34.6211L172.178 34.6132C172.187 29.2645 172.196 23.9246 172.213 18.5758C172.036 18.0531 172.027 17.5303 172.044 16.9987C171.653 13.4725 171.351 9.92853 171.36 6.36684C170.898 5.09987 171.36 4.19616 172.436 3.48737C174.195 2.32672 176.106 1.62678 178.203 1.42301C178.805 0.99582 179.498 0.957112 180.191 0.918426C180.245 0.91539 180.3 0.912353 180.354 0.909129C187.171 -0.322399 194.032 -0.127481 200.893 0.466133C204.119 0.740791 207.336 1.13063 210.402 2.24698C213.877 3.50508 214.544 4.90495 212.998 8.20084C210.536 13.4636 210.118 19.0897 210.047 24.7335C209.998 28.5093 210.094 32.2895 210.19 36.0679C210.232 37.7332 210.275 39.3982 210.305 41.0623C210.399 42.9202 210.551 44.7758 210.703 46.632C210.968 49.8567 211.233 53.0834 211.193 56.3279V56.3368C211.621 57.4652 211.605 58.6378 211.59 59.8066C211.587 60.0235 211.584 60.2403 211.584 60.4566C212.012 62.2128 212.024 63.9933 212.036 65.7779C212.038 66.1452 212.041 66.5126 212.047 66.8801C212.593 69.6449 212.797 72.4425 213.001 75.2409C213.132 77.0429 213.264 78.8453 213.486 80.6395C213.998 84.75 214.374 88.8797 214.75 93.0109C214.883 94.4808 215.017 95.9508 215.157 97.4202C215.192 97.8041 215.185 98.1917 215.179 98.5807C215.175 98.7931 215.172 99.0059 215.175 99.2188C215.188 99.4714 215.204 99.7263 215.219 99.9811C215.235 100.236 215.251 100.49 215.264 100.743C215.862 103.439 216.103 106.177 216.345 108.918C216.473 110.373 216.602 111.829 216.784 113.279C217.646 120.128 218.401 126.986 219.041 133.861C219.254 136.167 219.543 138.463 219.833 140.759C220.306 144.508 220.778 148.256 220.916 152.042C221.778 156.737 222.294 161.469 222.56 166.226H222.543C223.085 167.945 223.254 169.708 223.262 171.498C223.28 171.755 223.296 172.012 223.311 172.269C223.327 172.526 223.342 172.783 223.36 173.04C223.422 173.146 223.449 173.243 223.449 173.35C223.814 174.59 224.062 175.839 223.734 177.142C223.751 177.307 223.84 177.452 223.93 177.597C224.071 177.826 224.213 178.055 224.071 178.364C224.168 179.118 224.285 179.868 224.402 180.618C224.706 182.559 225.009 184.497 224.951 186.471C225.04 186.578 225.04 186.684 224.978 186.799C225.566 188.932 225.782 191.115 225.998 193.3C226.098 194.318 226.199 195.336 226.338 196.35C226.921 200.572 227.419 204.806 227.917 209.042C228.141 210.939 228.364 212.837 228.595 214.734C229.013 215.78 229.075 216.861 228.986 217.959C228.999 218.092 229.015 218.223 229.03 218.354C229.046 218.484 229.061 218.615 229.075 218.748C229.688 220.582 229.892 222.469 229.857 224.392C229.851 224.392 229.849 224.396 229.845 224.399C229.844 224.4 229.842 224.401 229.839 224.401C230.381 225.703 230.568 227.067 230.568 228.467C230.968 230.501 231.314 232.546 231.661 234.59C232.444 239.217 233.227 243.842 234.638 248.34C234.946 249.321 235.294 250.285 235.642 251.25C235.815 251.732 235.989 252.215 236.158 252.699C236.238 252.947 236.327 253.195 236.416 253.443C237.491 255.074 238.567 256.695 239.642 258.316C239.9 258.573 240.16 258.83 240.42 259.087C240.68 259.344 240.939 259.601 241.197 259.858ZM160.919 252.685C160.92 252.683 160.922 252.681 160.926 252.681H160.909C160.909 252.69 160.917 252.69 160.917 252.69C160.917 252.69 160.917 252.687 160.919 252.685ZM159.291 163.843V163.905C159.316 163.862 159.345 163.822 159.376 163.782C159.389 163.764 159.402 163.746 159.416 163.728C159.396 163.743 159.382 163.758 159.368 163.773C159.349 163.794 159.33 163.814 159.3 163.834V163.816C159.295 163.821 159.291 163.828 159.286 163.835C159.282 163.841 159.278 163.848 159.273 163.852C159.278 163.852 159.28 163.85 159.282 163.847C159.284 163.845 159.287 163.843 159.291 163.843ZM170.631 66.9332V66.9067C170.623 66.8889 170.614 66.8801 170.596 66.8801C170.614 66.8978 170.622 66.9155 170.631 66.9331L170.631 66.9332ZM233.039 248.65C233.048 248.659 233.048 248.668 233.056 248.677C233.056 248.668 233.048 248.668 233.048 248.65H233.039ZM234.692 252.686C234.694 252.692 234.696 252.699 234.701 252.708H234.718C234.709 252.694 234.702 252.68 234.696 252.665C234.691 252.653 234.687 252.641 234.683 252.628V252.664C234.687 252.673 234.689 252.679 234.692 252.686ZM206.949 177.234C207.148 177.134 207.346 177.035 207.537 176.928C207.564 176.964 207.591 176.99 207.609 177.008C207.84 176.813 208.078 176.624 208.315 176.434C208.855 176.005 209.395 175.575 209.857 175.077C212.479 172.25 212.95 168.139 211.324 164.852C210.284 162.77 208.666 161.282 206.515 160.36C205.147 159.776 204.614 158.819 204.702 157.339C204.862 154.832 204.116 152.581 202.463 150.703C200.641 148.63 198.286 147.567 195.504 147.549C193.664 147.54 191.967 148.018 190.438 149.055C189.301 149.835 187.976 149.835 186.803 149.055C183.346 146.76 178.529 147.159 175.507 149.994C173.561 151.819 172.557 154.07 172.512 156.745C172.477 158.455 171.677 159.678 170.113 160.369C168.842 160.936 167.784 161.76 166.887 162.815C164.469 165.659 164.034 169.787 165.82 173.057C166.815 174.891 168.264 176.246 170.175 177.123C171.659 177.806 172.219 178.86 172.05 180.481C171.704 183.768 172.77 186.533 175.294 188.686C178.289 191.237 182.848 191.689 186.43 189.226C187.861 188.242 189.221 188.234 190.651 189.111C194.375 191.397 199.201 190.759 202.214 187.551C204.071 185.576 204.871 183.201 204.685 180.508C204.622 179.507 204.898 178.612 205.671 177.992C206.053 177.685 206.502 177.459 206.949 177.234ZM192.38 165.461C192.856 165.698 193.327 165.932 193.531 166.465C193.851 166.908 193.86 167.386 193.833 167.9C193.78 168.547 193.762 169.211 193.815 169.858C193.913 171.072 193.309 172.206 192.18 172.631C191.275 172.975 190.493 173.497 189.704 174.025C189.617 174.083 189.53 174.142 189.443 174.2C188.536 174.793 187.656 174.758 186.732 174.191C185.897 173.686 185.026 173.243 184.137 172.835C183.657 172.614 182.893 171.683 183.053 170.886C183.247 169.903 183.243 168.915 183.239 167.925C183.239 167.693 183.238 167.46 183.239 167.227C183.248 166.447 183.773 165.898 184.421 165.65C185.417 165.278 186.386 164.905 187.23 164.232C187.523 164.002 187.896 163.842 188.252 163.736C188.892 163.55 189.425 163.842 189.967 164.17C190.685 164.608 191.442 164.989 192.194 165.368L192.313 165.428C192.336 165.439 192.358 165.45 192.38 165.461Z" fill="#F4C100"/>
<path d="M192.331 165.473C191.54 165.074 190.741 164.675 189.985 164.215C189.443 163.887 188.91 163.594 188.27 163.781C187.914 163.887 187.541 164.046 187.248 164.277C186.403 164.95 185.435 165.322 184.439 165.694C183.791 165.942 183.266 166.492 183.257 167.271C183.248 168.494 183.311 169.717 183.071 170.93C182.911 171.728 183.675 172.658 184.155 172.88C185.044 173.287 185.915 173.73 186.75 174.235C187.674 174.802 188.554 174.838 189.461 174.244C190.341 173.659 191.194 173.057 192.198 172.676C193.327 172.251 193.931 171.117 193.833 169.903C193.78 169.256 193.798 168.591 193.851 167.945C193.887 167.431 193.878 166.952 193.558 166.518C193.336 165.951 192.829 165.721 192.331 165.473Z" fill="#F20079"/>
<path d="M370.519 11.9926C370.341 11.0446 369.648 10.4953 368.928 9.96369C368.964 9.34349 368.591 9.0334 368.066 8.84734C367.151 8.45751 366.92 7.20825 365.827 7.04877C359.881 2.76057 353.082 0.29752 345.91 0.208921C321.354 -0.0923163 296.789 0.0760215 272.225 0.111461C267.426 0.120321 262.706 0.740517 258.129 2.31758C251.704 4.54142 248.229 10.0434 249.429 16.3871C249.997 19.3818 251.162 22.1461 252.904 24.6623C253.819 26.4697 254.77 28.2506 256.112 29.7833C257.285 32.0869 258.716 34.231 260.209 36.3397C260.245 36.9864 260.52 37.518 261.044 37.9167C261.347 38.5812 261.595 39.2812 261.951 39.9102C264.466 44.3756 265.879 49.2751 267.523 54.0772C267.55 54.3164 267.586 54.5468 267.612 54.786C267.639 55.1847 267.603 55.6011 267.683 55.9821C268.705 60.731 268.972 65.5242 268.972 70.3795C268.972 74.6234 268.43 78.823 268.421 83.058C268.403 83.3327 268.394 83.5985 268.376 83.8731C268.359 84.1035 268.35 84.3338 268.332 84.5642C267.825 88.0993 267.319 91.6433 266.812 95.1784C266.732 95.6125 266.661 96.0555 266.581 96.4896C265.408 101.531 264.226 106.581 263.053 111.622C262.662 111.968 262.671 112.429 262.689 112.889C261.338 116.956 259.907 120.996 258.654 125.089C257.925 127.482 258.289 128.12 260.742 128.669C266.27 129.9 271.834 129.759 277.397 128.802C279.459 128.447 280.001 127.313 279.672 125.382C278.606 119.224 277.877 113.031 277.175 106.82C275.833 94.9303 275.309 82.996 275.024 71.0528C274.758 59.9691 274.678 48.8764 275.62 37.8104C276.037 32.3616 277.024 27.0102 278.144 21.6676C278.944 19.5058 279.743 17.3351 280.543 15.1733C281.077 14.2342 281.601 13.2862 282.125 12.347C285.645 7.18168 290.479 4.78064 296.763 5.43627C297.127 5.48057 297.483 5.52487 297.847 5.56917C300.318 6.70324 302.673 7.99679 304.095 10.451C307.97 17.1136 308.654 25.5749 302.868 32.3527C300.647 34.9487 298.176 37.3408 296.283 40.2114C295.056 41.3455 294.168 42.7188 293.51 44.2338C290.959 48.4069 291.057 52.7571 292.692 57.1959C292.675 57.9047 292.915 58.5072 293.466 58.9767C294.345 61.3955 295.723 63.4953 297.5 65.347C298.069 66.6051 298.994 67.5886 299.989 68.51C300.38 69.2277 300.895 69.8302 301.571 70.3086C304.202 73.9146 307.268 77.237 309.01 81.4278C309.276 82.234 309.543 83.0403 309.801 83.8465C310.849 88.7461 309.783 93.2823 307.392 97.5883C307.294 97.668 307.241 97.7655 307.25 97.8984C306.832 98.235 306.512 98.6337 306.441 99.1831C305.846 99.945 305.126 100.618 304.806 101.575H304.797C302.655 104.136 300.504 106.696 298.363 109.248C297.883 109.514 297.598 109.939 297.465 110.462C290.506 118.312 289.368 127.446 295.625 135.943C295.847 136.501 296.158 136.997 296.709 137.29C296.869 137.573 297.003 137.883 297.198 138.14C300.069 141.959 303.499 145.334 306.192 149.286C309.383 153.955 311.098 158.97 309.765 164.702C309.241 166.944 308.21 168.964 307.285 171.037C306.726 171.852 306.166 172.667 305.615 173.491C304.53 174.829 303.455 176.167 302.371 177.496C299.376 181.173 296.07 184.61 293.821 188.845C291.324 193.559 290.711 198.423 292.675 203.491C293.261 205.874 294.505 207.93 295.954 209.87C297.314 212.209 299.065 214.265 300.815 216.311C301.633 217.392 302.451 218.473 303.259 219.554C306.494 224.188 308.859 229.158 309.25 234.89C309.027 237.327 308.805 239.763 308.592 242.2C307.401 246.86 305.028 250.847 301.58 254.196C300.682 254.515 300.051 255.18 299.429 255.853C299.322 255.826 299.251 255.871 299.207 255.959C298.771 256.039 298.469 256.278 298.283 256.668C297.207 256.987 296.31 257.616 295.43 258.281C295.305 258.245 295.208 258.281 295.136 258.378C293.51 259.158 291.893 259.946 290.266 260.726C288.631 261.266 287.049 261.887 285.831 263.18C284.632 264.031 284.712 265.103 285.44 266.157C286.134 267.158 287.253 267.158 288.364 267.158C303.748 267.149 319.132 267.149 334.525 267.149C334.863 267.149 335.201 267.167 335.538 267.14C336.747 267.052 337.52 266.405 337.903 265.262C338.276 264.137 337.574 263.428 336.818 262.888C336.01 262.312 335.094 261.851 334.17 261.479C330.801 260.115 327.353 258.954 324.056 257.448C317.888 254.639 313.693 250.422 314.538 242.979C314.573 242.616 314.618 242.253 314.662 241.89C315.764 238.736 317.613 235.998 319.559 233.322C320.59 232.516 321.434 231.532 322.19 230.469C323.887 228.733 325.505 226.943 326.793 224.87C327.22 224.542 327.558 224.161 327.629 223.603C328.029 223.124 328.375 222.628 328.446 221.99C330.837 217.72 330.295 213.396 328.677 209.055C328.455 208.266 328.224 207.469 327.629 206.858C327.664 206.751 327.638 206.68 327.54 206.627C326.18 203.597 324.243 200.948 322.03 198.494C321.879 197.971 321.665 197.51 321.07 197.369C320.83 197.183 320.581 196.988 320.341 196.802C320.092 195.109 318.679 194.179 317.799 192.894C317.728 192.505 317.497 192.221 317.15 192.035C317.017 191.486 316.759 191.007 316.271 190.688C315.462 189.253 314.973 187.64 313.871 186.373C313.302 183.565 312.467 180.801 312.76 177.859C313.276 172.774 315.782 168.618 318.821 164.711C321.665 161.061 324.829 157.659 327.407 153.796C332.33 146.406 332.241 138.45 327.175 131.504C326.207 129.697 324.927 128.12 323.514 126.649C323.274 126.374 323.034 126.108 322.785 125.834C322.438 124.974 321.799 124.363 321.096 123.796C320.67 123.202 320.288 122.582 319.817 122.024C317.07 118.799 314.778 115.317 313.347 111.312C313.151 110.125 312.947 108.938 312.751 107.751C312.778 107.449 312.76 107.148 312.6 106.838C312.751 104.251 313.204 101.717 313.889 99.2274C314.022 98.9616 314.164 98.6958 314.298 98.43C314.689 97.6148 315.071 96.7997 315.462 95.9846C316.653 94.2215 317.844 92.4495 319.043 90.6864C320.27 89.1005 321.496 87.5057 322.714 85.9198C323.585 85.0958 324.314 84.1744 324.838 83.0934C325.611 82.11 326.473 81.1886 326.82 79.9393C327.273 79.6115 327.566 79.1951 327.575 78.6103C331.201 72.3198 330.642 66.0647 327.344 59.8805C325.122 55.7163 321.976 52.1989 319.186 48.4335C315.533 43.4985 312.805 38.1914 312.707 31.9008C312.662 29.296 312.893 26.6824 312.991 24.0687C313.249 23.5548 313.418 23.0232 313.32 22.4296C313.524 21.3753 313.72 20.3209 313.924 19.2666C313.987 19.1071 314.049 18.9476 314.102 18.7882C314.28 18.1237 314.458 17.468 314.644 16.8035C315.142 16.0859 315.293 15.2442 315.471 14.4202C316.822 12.5419 317.844 10.4333 319.479 8.74988C320.172 8.20057 320.857 7.66012 321.541 7.1108C321.674 7.13738 321.781 7.09307 321.861 6.98676C324.9 5.19705 328.224 5.28566 331.575 5.48943C332.917 6.07419 334.268 6.65894 335.61 7.24369C340.995 11.5496 342.639 17.6984 343.733 24.0421C345.421 33.8146 345.448 43.6934 345.466 53.5811C345.483 67.4291 345.572 81.2772 345.643 95.1164C345.652 95.9581 345.43 96.8706 346.114 97.5971C347.341 98.7312 348.825 98.3679 350.265 98.3325C352.033 98.5983 353.749 98.1553 355.473 97.8718C356.255 97.7478 356.922 97.4908 356.495 96.4099C355.597 94.1152 354.78 91.785 353.926 89.4726C353.26 86.4691 352.593 83.4567 351.927 80.4532V80.4443C351.687 75.9169 351.616 71.3984 351.865 66.8709C352.193 65.0015 352.522 63.1321 352.851 61.2538C353.171 60.9348 352.7 60.3943 353.171 60.1108C354.895 54.3164 357.144 48.7347 360.165 43.4808C361.97 40.3532 363.836 37.2522 365.667 34.1335C367.018 32.4236 368.066 30.5364 368.955 28.5518C370.261 26.6558 371.141 24.556 371.71 22.3499C372.634 18.8147 372.741 15.2531 370.519 11.9926ZM271.629 62.8751C271.629 62.8663 271.629 62.8663 271.629 62.8574C271.638 62.8574 271.638 62.8663 271.647 62.8663C271.638 62.8751 271.638 62.8751 271.629 62.8751ZM299.998 4.69204C299.998 4.7009 299.998 4.7009 299.998 4.69204C299.989 4.69204 299.989 4.69204 299.989 4.7009L299.998 4.69204ZM303.197 3.09725C303.179 3.10611 303.162 3.10612 303.144 3.11498C303.171 3.0884 303.206 3.06181 303.233 3.03523C303.233 3.04409 303.242 3.05295 303.242 3.07067C303.224 3.07953 303.215 3.08839 303.197 3.09725ZM302.335 67.7481C302.335 67.7392 302.353 67.7304 302.353 67.7215C302.362 67.7304 302.353 67.7303 302.353 67.7392C302.353 67.7392 302.344 67.7392 302.335 67.7481ZM297.98 209.905C297.98 209.897 297.98 209.897 297.98 209.888C297.989 209.888 297.998 209.888 297.998 209.888C297.989 209.897 297.98 209.897 297.98 209.905ZM327.566 209.046C327.566 209.055 327.566 209.064 327.566 209.073C327.549 209.081 327.54 209.09 327.531 209.099C327.54 209.081 327.549 209.064 327.566 209.046ZM325.131 135.571V135.562C325.167 135.606 325.194 135.65 325.229 135.686C325.194 135.642 325.167 135.597 325.122 135.562L325.131 135.571ZM313.009 99.2185C312.991 99.2362 312.982 99.2628 312.973 99.2805C312.973 99.2628 312.973 99.2362 312.973 99.2185C312.982 99.2185 313 99.2185 313.009 99.2185ZM347.83 96.7909C347.821 96.782 347.812 96.7909 347.812 96.782C347.821 96.7732 347.83 96.7643 347.83 96.7466C347.83 96.7643 347.83 96.782 347.83 96.7909ZM351.074 58.8793C351.074 58.8616 351.074 58.8439 351.074 58.8261C351.109 58.8084 351.127 58.7907 351.163 58.7818C351.136 58.8084 351.109 58.8438 351.074 58.8793Z" fill="#F4C100"/>
<path fill-rule="evenodd" clip-rule="evenodd" d="M488.931 259.858C489.615 260.115 490.069 260.638 490.522 261.169C491.295 261.648 492.006 262.179 492.193 263.154C493.233 265.378 492.433 267.061 490.158 267.043C478.717 267.072 467.282 267.055 455.843 267.038C452.976 267.033 450.108 267.029 447.24 267.026C446.876 267.043 446.521 267.052 446.165 267.026H445.81C445.721 267.026 445.632 266.98 445.543 266.935C445.507 266.917 445.472 266.899 445.436 266.884L445.267 266.902L445.134 266.795C443.401 265.945 442.948 264.217 444.068 262.569C444.521 261.896 445.125 261.364 445.881 261.027C448.387 259.264 450.12 256.863 451.551 254.205C451.705 253.567 451.868 252.931 452.031 252.296C452.544 250.292 453.057 248.29 453.293 246.231C453.763 239.907 453.411 233.603 453.06 227.296C453.012 226.446 452.965 225.596 452.919 224.746C452.448 215.93 448.209 209.746 440.024 206.282C439.853 206.213 439.697 206.112 439.54 206.012C439.476 205.971 439.413 205.931 439.348 205.892C435.372 204.858 431.34 204.946 427.309 205.034C425.71 205.069 424.111 205.103 422.516 205.068C420.597 205.608 418.688 206.157 416.779 206.706L416.774 206.707C416.357 207.177 415.832 207.425 415.21 207.478C414.655 207.877 414.102 208.275 413.549 208.674C412.995 209.073 412.442 209.472 411.886 209.87H411.869C411.598 210.127 411.329 210.386 411.06 210.646C410.791 210.905 410.522 211.164 410.251 211.421C410.003 211.713 409.745 212.005 409.488 212.297L409.487 212.298C409.088 212.859 408.686 213.423 408.285 213.987C407.882 214.553 407.479 215.119 407.078 215.682C406.767 216.444 406.456 217.197 406.136 217.951C405.887 218.899 405.638 219.845 405.389 220.791C405.141 221.737 404.892 222.682 404.643 223.63C404.341 229.282 404.19 234.935 405.025 240.57C405.985 244.521 407.452 248.269 409.513 251.787C409.46 251.813 409.425 251.866 409.389 251.919C409.425 251.875 409.469 251.831 409.513 251.787L409.513 251.787L409.522 251.804C413.024 256.305 417.654 259.362 422.64 261.975C423.209 262.277 423.769 262.587 424.178 263.207C424.252 263.318 424.329 263.426 424.405 263.534C424.92 264.26 425.399 264.936 424.826 265.9C424.231 266.902 423.28 267.043 422.205 267.034C418.847 267.019 415.488 267.016 412.13 267.012C409.614 267.009 407.097 267.007 404.581 266.999C400.99 266.987 397.399 266.96 393.806 266.932C392.001 266.918 390.195 266.905 388.388 266.893C387.855 266.902 387.313 266.902 386.78 266.902C386.211 267.088 385.669 267.105 385.162 266.742C384.584 266.6 384.291 266.211 384.176 265.652C383.678 264.793 383.802 263.987 384.353 263.207C384.522 262.226 385.191 261.586 385.858 260.949C385.896 260.913 385.933 260.877 385.971 260.841C386.353 260.159 386.851 259.583 387.482 259.131L389.215 256.766L389.224 256.748C389.371 256.52 389.518 256.29 389.665 256.061C390.043 255.472 390.422 254.881 390.806 254.294C396.022 244.158 397.729 233.136 399.071 222.008C399.23 220.754 399.352 219.494 399.474 218.232C399.699 215.902 399.925 213.569 400.386 211.27C400.351 211.04 400.368 210.818 400.502 210.615C400.786 205.494 401.453 200.417 402.199 195.349C402.209 195.045 402.184 194.738 402.159 194.43C402.095 193.641 402.03 192.85 402.555 192.124L402.552 192.022C402.525 191.072 402.499 190.116 402.928 189.227C403.132 185.449 403.592 181.698 404.051 177.947C404.334 175.646 404.616 173.345 404.839 171.037C404.873 170.905 404.905 170.77 404.937 170.634C404.963 170.524 404.989 170.413 405.016 170.302C404.972 169.567 404.954 168.831 405.336 168.158C405.654 163.316 406.242 158.503 406.83 153.691C407.096 151.512 407.362 149.333 407.603 147.151C407.878 144.655 408.187 142.163 408.496 139.672C408.665 138.308 408.834 136.944 408.998 135.58C409.039 135.108 409.078 134.636 409.117 134.164C409.369 131.117 409.621 128.071 410.26 125.072C410.273 124.806 410.284 124.538 410.296 124.27C410.307 124.002 410.318 123.734 410.331 123.468C410.471 122.261 410.585 121.051 410.7 119.841C410.972 116.966 411.244 114.091 411.851 111.259C411.869 110.87 411.889 110.482 411.909 110.094C411.929 109.707 411.949 109.319 411.966 108.929C412.246 106.478 412.523 104.026 412.8 101.575C413.499 95.3796 414.199 89.1857 414.944 82.9963C415.004 82.4867 415.023 81.9707 415.043 81.4542C415.084 80.3632 415.126 79.2699 415.548 78.2296C416.064 72.2846 416.65 66.3485 417.601 60.4566C417.723 59.1584 417.848 57.8601 417.972 56.5618C418.284 53.3149 418.596 50.0681 418.863 46.8212C419.047 44.5777 419.185 42.3342 419.323 40.0906C419.411 38.6484 419.5 37.2062 419.601 35.764C419.619 35.4991 419.707 35.2424 419.795 34.9856C419.836 34.8644 419.878 34.7432 419.912 34.6211L419.912 34.6132C419.921 29.2645 419.929 23.9246 419.947 18.5758C419.77 18.0531 419.761 17.5303 419.778 16.9987C419.387 13.4725 419.085 9.92853 419.094 6.36684C418.632 5.09987 419.094 4.19616 420.169 3.48737C421.929 2.32672 423.84 1.62678 425.937 1.42301C426.539 0.995823 427.232 0.957112 427.925 0.918427C427.979 0.91539 428.034 0.912354 428.088 0.909129C434.905 -0.322399 441.766 -0.127481 448.627 0.466133C451.853 0.740791 455.07 1.13063 458.136 2.24698C461.611 3.50508 462.278 4.90495 460.731 8.20084C458.27 13.4636 457.852 19.0897 457.781 24.7335C457.732 28.5091 457.828 32.2889 457.924 36.0672C457.966 37.7327 458.009 39.3979 458.039 41.0623C458.133 42.9202 458.285 44.7758 458.437 46.632C458.702 49.8567 458.967 53.0834 458.927 56.3279V56.3368C459.355 57.4652 459.339 58.6378 459.324 59.8066C459.321 60.0235 459.318 60.2403 459.318 60.4566C459.746 62.2127 459.758 63.9931 459.77 65.7777C459.772 66.145 459.774 66.5126 459.781 66.8801C460.327 69.6449 460.531 72.4425 460.735 75.2409C460.866 77.0429 460.997 78.8453 461.22 80.6395C461.732 84.75 462.107 88.8797 462.484 93.0109C462.617 94.4808 462.751 95.9508 462.891 97.4202C462.926 97.8041 462.919 98.1917 462.913 98.5807C462.909 98.7931 462.906 99.0059 462.909 99.2188C462.922 99.4714 462.938 99.7263 462.953 99.9811C462.969 100.236 462.984 100.49 462.998 100.743C463.596 103.439 463.837 106.177 464.079 108.918C464.207 110.373 464.336 111.829 464.518 113.279C465.38 120.128 466.135 126.986 466.775 133.861C466.988 136.167 467.277 138.463 467.567 140.76C468.04 144.508 468.512 148.256 468.65 152.042C469.512 156.737 470.028 161.469 470.294 166.226H470.277C470.819 167.945 470.988 169.708 470.996 171.498C471.014 171.755 471.03 172.012 471.045 172.268C471.061 172.526 471.076 172.783 471.094 173.04C471.156 173.146 471.183 173.243 471.183 173.35C471.547 174.59 471.796 175.839 471.467 177.142C471.485 177.307 471.574 177.452 471.664 177.597C471.805 177.826 471.947 178.055 471.805 178.364C471.902 179.118 472.019 179.868 472.136 180.618C472.44 182.559 472.743 184.497 472.685 186.471C472.774 186.578 472.774 186.684 472.712 186.799C473.3 188.932 473.516 191.115 473.732 193.3C473.832 194.318 473.933 195.336 474.071 196.35C474.655 200.572 475.153 204.807 475.651 209.042C475.875 210.94 476.098 212.837 476.329 214.734C476.747 215.78 476.809 216.861 476.72 217.959C476.733 218.092 476.749 218.223 476.764 218.354C476.78 218.484 476.795 218.615 476.809 218.748C477.422 220.582 477.626 222.469 477.591 224.392C477.586 224.392 477.584 224.394 477.582 224.396C477.58 224.398 477.578 224.401 477.573 224.401C478.115 225.703 478.302 227.067 478.302 228.467C478.702 230.501 479.048 232.546 479.394 234.59C480.178 239.216 480.961 243.842 482.372 248.34C482.68 249.321 483.028 250.285 483.375 251.25C483.549 251.732 483.723 252.215 483.892 252.699C483.972 252.947 484.061 253.195 484.15 253.443C485.225 255.074 486.3 256.695 487.376 258.316C487.634 258.573 487.894 258.83 488.154 259.087C488.414 259.344 488.674 259.601 488.931 259.858ZM408.643 252.69C408.643 252.69 408.643 252.681 408.651 252.681H408.634C408.634 252.69 408.643 252.69 408.643 252.69ZM407.016 163.843V163.905C407.029 163.886 407.043 163.869 407.056 163.851C407.086 163.81 407.116 163.771 407.141 163.728C407.122 163.743 407.107 163.758 407.093 163.773C407.074 163.794 407.055 163.814 407.025 163.834V163.816C407.021 163.821 407.016 163.828 407.012 163.834C407.007 163.841 407.003 163.847 406.998 163.852C407.003 163.852 407.005 163.85 407.007 163.847C407.009 163.845 407.012 163.843 407.016 163.843ZM418.365 66.9332V66.9067C418.348 66.8889 418.339 66.8801 418.33 66.8801C418.348 66.8978 418.356 66.9155 418.365 66.9332ZM480.782 248.665C480.781 248.661 480.781 248.657 480.781 248.65H480.773C480.777 248.654 480.779 248.659 480.781 248.663C480.781 248.664 480.782 248.664 480.782 248.665ZM482.417 252.686C482.419 252.693 482.421 252.699 482.426 252.708H482.443C482.426 252.681 482.417 252.655 482.408 252.628V252.664C482.412 252.673 482.415 252.679 482.417 252.686ZM454.684 177.234C454.883 177.134 455.081 177.035 455.272 176.928C455.299 176.964 455.326 176.99 455.343 177.008C455.575 176.813 455.812 176.624 456.05 176.434C456.59 176.005 457.129 175.575 457.592 175.077C460.214 172.25 460.685 168.139 459.058 164.852C458.019 162.77 456.401 161.282 454.25 160.36C452.882 159.776 452.348 158.819 452.437 157.339C452.597 154.832 451.851 152.581 450.198 150.703C448.376 148.63 446.021 147.567 443.239 147.549C441.399 147.54 439.702 148.018 438.173 149.055C437.035 149.835 435.711 149.835 434.538 149.055C431.081 146.76 426.264 147.159 423.242 149.994C421.296 151.819 420.292 154.07 420.247 156.745C420.212 158.455 419.412 159.678 417.848 160.369C416.577 160.936 415.519 161.76 414.621 162.815C412.204 165.659 411.769 169.787 413.555 173.057C414.55 174.891 415.999 176.246 417.91 177.123C419.394 177.805 419.954 178.86 419.785 180.481C419.438 183.768 420.505 186.533 423.029 188.685C426.024 191.237 430.583 191.689 434.165 189.226C435.596 188.242 436.955 188.234 438.386 189.111C442.11 191.397 446.936 190.759 449.949 187.551C451.806 185.576 452.606 183.201 452.42 180.508C452.357 179.507 452.633 178.612 453.406 177.992C453.787 177.685 454.237 177.459 454.684 177.234ZM440.106 165.461C440.582 165.698 441.053 165.932 441.257 166.465C441.577 166.908 441.586 167.386 441.559 167.9C441.506 168.547 441.488 169.211 441.541 169.858C441.639 171.072 441.035 172.206 439.906 172.631C439.001 172.975 438.219 173.497 437.43 174.025C437.343 174.083 437.256 174.142 437.169 174.2C436.262 174.793 435.382 174.758 434.458 174.191C433.623 173.686 432.752 173.243 431.863 172.835C431.383 172.614 430.619 171.683 430.779 170.886C430.973 169.903 430.969 168.915 430.965 167.925C430.965 167.693 430.964 167.46 430.965 167.227C430.974 166.447 431.499 165.898 432.147 165.65C433.143 165.278 434.111 164.905 434.956 164.232C435.249 164.002 435.622 163.842 435.978 163.736C436.618 163.55 437.151 163.842 437.693 164.17C438.411 164.608 439.168 164.989 439.92 165.368L440.039 165.428C440.062 165.439 440.084 165.45 440.106 165.461Z" fill="#F4C100"/>
<path d="M440.064 165.473C439.273 165.074 438.473 164.675 437.717 164.215C437.175 163.887 436.642 163.594 436.002 163.781C435.646 163.887 435.273 164.046 434.98 164.277C434.136 164.95 433.167 165.322 432.172 165.694C431.523 165.942 430.998 166.492 430.99 167.271C430.981 168.494 431.043 169.717 430.803 170.93C430.643 171.728 431.407 172.658 431.887 172.88C432.776 173.287 433.647 173.73 434.482 174.235C435.407 174.802 436.286 174.838 437.193 174.244C438.073 173.659 438.926 173.057 439.93 172.676C441.059 172.251 441.663 171.117 441.565 169.903C441.512 169.256 441.53 168.591 441.583 167.945C441.619 167.431 441.61 166.952 441.29 166.518C441.068 165.951 440.561 165.721 440.064 165.473Z" fill="#F20079"/>
<path fill-rule="evenodd" clip-rule="evenodd" d="M127.31 44.3477C131.923 50.1155 132.456 56.7427 131.407 63.6977C131.647 65.6026 130.723 67.0822 129.683 68.4821C129.354 69.182 128.892 69.7668 128.226 70.1743C127.808 71.0515 127.319 71.8577 126.519 72.4425C125.598 73.6736 125.597 75.0958 125.597 76.4947C125.596 76.8778 125.596 77.2592 125.577 77.6344C125.444 80.186 125.808 82.72 126.297 85.2362C127.541 91.6951 125.657 95.939 120.103 99.4209C118.965 100.13 117.818 100.83 116.654 101.503C114.077 103 112.584 105.082 111.811 108.068C109.58 116.689 103.634 122.173 95.7333 125.779C95.5415 125.867 95.3524 125.969 95.1621 126.072C94.5854 126.383 93.9976 126.701 93.2893 126.647C92.5686 127.236 91.7089 127.455 90.8474 127.675C90.7102 127.71 90.5731 127.745 90.4364 127.782C90.1648 127.81 89.9182 127.931 89.6715 128.051C89.3128 128.225 88.9538 128.4 88.5167 128.295C87.967 128.756 87.3101 128.854 86.6486 128.952C86.5722 128.963 86.4957 128.975 86.4193 128.986C83.6198 129.74 80.8025 130.422 77.8963 130.652C77.6462 130.7 77.397 130.755 77.1477 130.811C76.3255 130.994 75.5029 131.177 74.6435 131.069C69.4977 131.91 64.3075 132.008 59.1173 132.079C58.9415 132.082 58.7563 132.08 58.5667 132.079C57.2517 132.069 55.7289 132.057 55.7134 133.629C55.6987 135.138 57.0751 135.06 58.2656 134.993C58.5151 134.979 58.7564 134.965 58.9751 134.967C61.7123 134.988 64.4506 134.987 67.1888 134.985C72.4167 134.982 77.6443 134.978 82.8644 135.135C89.2011 135.33 95.3156 136.774 100.595 140.513C103.847 142.826 106.594 145.599 106.22 150.1C106.327 152.837 105.847 155.389 103.874 157.471C103.726 158.523 103.039 159.2 102.356 159.874C102.136 160.091 101.916 160.308 101.715 160.537C100.708 161.674 99.6758 162.791 98.6447 163.907C98.1739 164.416 97.7033 164.925 97.2353 165.436C96.7287 166.127 96.231 166.809 95.7333 167.501C95.6311 167.729 95.528 167.957 95.4249 168.185C94.417 170.417 93.41 172.646 93.2004 175.138C92.8449 178.265 92.8893 181.384 93.5203 184.485C94.844 189.255 97.4441 193.347 100.044 197.438C100.935 198.841 101.826 200.244 102.665 201.673C105.394 206.316 107.331 211.198 107.074 216.709C106.985 218.605 106.567 220.412 105.509 222.024C105.447 222.68 105.118 223.194 104.63 223.619C103.208 226.392 101.075 228.607 98.9417 230.822C98.8083 231.23 98.5417 231.513 98.1596 231.691C97.7552 232.169 97.3486 232.645 96.942 233.122C96.5354 233.598 96.1288 234.074 95.7244 234.552C93.947 237.175 92.2228 239.815 91.6007 242.996C90.7919 250.421 94.9601 254.656 101.128 257.455C103.325 258.451 105.583 259.307 107.841 260.163C109.1 260.641 110.359 261.118 111.606 261.619C112.415 261.947 113.179 262.381 113.899 262.869C114.717 263.427 115.33 264.189 115.019 265.252C114.717 266.315 113.917 266.935 112.842 267.121C112.421 267.198 111.994 267.193 111.567 267.187C111.453 267.185 111.338 267.183 111.224 267.183C96.5954 267.192 81.9668 267.192 67.3381 267.183C67.1937 267.183 67.0479 267.186 66.9019 267.189C65.8436 267.21 64.7682 267.231 64.0498 266.165C62.8322 265.057 63.2588 263.985 64.2453 263.072C65.1251 262.249 66.1827 261.646 67.347 261.265C68.2876 260.755 69.2463 260.279 70.2046 259.803C72.2436 258.789 74.2806 257.777 76.1366 256.445C80.7581 253.132 84.0197 248.861 85.3617 243.244C85.4035 243.07 85.4276 242.888 85.4518 242.705C85.5154 242.226 85.5801 241.738 85.9661 241.366C86.0105 238.557 86.0638 235.748 86.1171 232.94C85.4328 227.588 82.971 223.026 79.896 218.711C79.136 217.645 78.3389 216.605 77.5419 215.566C75.9343 213.469 74.3273 211.373 73.026 209.062C72.5639 208.637 72.2795 208.106 72.1195 207.503C71.133 206.006 70.4576 204.393 70.111 202.639C69.6134 201.689 69.556 200.651 69.4983 199.609C69.4951 199.553 69.492 199.497 69.4888 199.441C69.1067 196.641 69.3111 193.832 69.5155 191.032C69.7644 187.621 69.7999 184.219 69.7555 180.808C69.7066 180.534 69.6555 180.261 69.6044 179.989C69.5533 179.716 69.5022 179.444 69.4533 179.169C68.8134 175.873 68.1291 172.639 65.6673 170.052C58.4152 162.424 42.6401 161.414 37.0854 175.333C36.9883 175.572 36.8653 175.797 36.7427 176.021C36.6746 176.145 36.6067 176.269 36.5433 176.396L36.4647 176.7C35.7705 179.389 35.0774 182.073 34.8547 184.848C34.6147 190.908 37.1654 196.029 40.2138 201.026C42.7112 205.111 45.0574 209.284 44.6664 214.343C44.6486 214.813 44.6331 215.282 44.6175 215.752C44.6019 216.221 44.5864 216.691 44.5686 217.16C44.5289 217.398 44.4963 217.642 44.4645 217.881L44.4531 217.967C44.4449 218.042 44.4373 218.117 44.4297 218.193C44.3628 218.853 44.2964 219.509 43.8576 220.058C43.7865 221.688 43.0933 223.097 42.2313 224.434C40.8289 227.728 38.4865 230.32 36.1459 232.91C35.6533 233.456 35.1607 234.001 34.677 234.552C30.0466 239.824 27.8426 243.9 30.8909 251.076C30.9846 251.216 31.0777 251.356 31.1706 251.495C31.4477 251.91 31.7223 252.322 32.0019 252.733C32.4578 253.193 32.9178 253.65 33.379 254.108C33.61 254.337 33.8413 254.567 34.0726 254.797C34.3788 255.023 34.6814 255.253 34.9827 255.482C35.1536 255.612 35.3241 255.741 35.4946 255.869C36.2099 256.281 36.9274 256.693 37.6449 257.105C38.3627 257.517 39.0805 257.929 39.7961 258.341C40.7449 258.726 41.7117 259.072 42.6786 259.418C45.3619 260.377 48.0458 261.337 50.3454 263.134L50.3543 263.161C51.643 264.277 51.6519 265.376 50.3187 266.466C49.6344 267.166 48.799 267.299 47.8836 267.095C46.1105 267.104 44.338 267.114 42.5658 267.124C37.2675 267.154 31.9729 267.183 26.6783 267.183C22.0518 267.183 17.4253 267.158 12.7988 267.133C10.1554 267.119 7.51205 267.105 4.86867 267.095C4.65356 267.105 4.43768 267.122 4.22148 267.139C3.70521 267.178 3.18714 267.218 2.67348 267.175C0.611606 267.006 -0.0193876 266.182 0.185022 264.02C1.02694 262.494 2.50307 261.865 3.95511 261.247C4.2811 261.108 4.60588 260.97 4.92199 260.822C8.0859 259.342 11.2231 257.81 14.1649 255.914C14.4759 255.471 14.867 255.143 15.4002 255.019C15.9601 254.514 16.52 254.018 17.0799 253.521C17.5696 252.975 18.063 252.433 18.5553 251.892C18.8136 251.608 19.0715 251.324 19.3284 251.041C20.6971 248.879 21.8614 246.611 22.7856 244.219C24.0388 238.991 24.4476 233.764 22.7412 228.545C21.4081 224.47 19.0618 220.961 16.5023 217.568C15.9787 216.871 15.4483 216.179 14.9179 215.487C13.0357 213.031 11.1549 210.577 9.58787 207.902C5.27748 200.539 5.52633 193.38 10.3611 186.337C11.9724 183.99 13.8091 181.821 15.6456 179.651C17.1518 177.872 18.6579 176.093 20.0394 174.216C23.2478 169.848 25.6385 165.215 25.1941 159.553C24.9275 156.116 23.5588 153.094 21.9236 150.153C21.257 149.409 20.6349 148.638 20.235 147.716C19.1375 146.338 17.9718 145.014 16.806 143.689C14.554 141.13 12.3014 138.571 10.5388 135.623C9.59676 134.692 9.03684 133.532 8.58359 132.318C5.49966 126.382 5.89959 120.614 9.38345 114.979C9.63229 114.199 10.0411 113.517 10.6366 112.95C10.6988 112.551 10.9476 112.277 11.3031 112.099C12.5917 110.028 14.1766 108.189 15.7611 106.35C16.4059 105.602 17.0507 104.854 17.6754 104.09C20.3772 100.812 22.9456 97.4363 24.3231 93.3607C26.5539 86.7512 24.5898 80.9834 20.6704 75.5966C19.2775 73.6863 17.7425 71.8858 16.2073 70.0849C14.0399 67.5426 11.8721 64.9997 10.1033 62.1472C9.82021 61.6909 9.56977 61.2141 9.31879 60.7364C9.19946 60.5092 9.08001 60.2818 8.95687 60.0563C8.45029 59.4893 8.14812 58.8336 8.09479 58.0717H8.11256C7.21493 56.8579 7.01942 55.4314 6.90388 53.9873C5.86406 50.0889 6.97497 46.5981 8.97463 43.2933C10.4935 40.7815 12.4236 38.5881 14.3529 36.3956C15.3022 35.3168 16.2513 34.2383 17.151 33.1221C19.6839 29.9769 21.5236 26.5481 21.9325 22.4725C21.9236 21.8346 21.9147 21.1967 21.8969 20.5588C20.546 13.5063 15.1691 10.4851 9.24124 7.99541C8.85798 7.83483 8.46082 7.7028 8.06335 7.57065C7.18889 7.27994 6.31286 6.9887 5.57965 6.39176C3.79328 5.99307 2.14023 5.33743 0.833784 3.99073C-0.161603 3.30851 -0.15272 2.4048 0.273875 1.42135C0.816005 0.322722 1.74031 0.0569232 2.869 0.198682L2.93139 0.198599C29.7061 0.163187 56.4719 0.127787 83.2465 0.110081C85.7972 0.110081 88.3479 0.358161 90.8541 0.942915C90.9865 0.956301 91.1209 0.961845 91.2552 0.967386C91.7434 0.987518 92.2305 1.00761 92.6138 1.40363C98.4795 2.36936 103.679 4.70838 107.838 9.02316C110.149 11.4153 110.922 14.4897 111.117 17.697C111.176 18.7197 111.166 19.747 111.156 20.7741C111.146 21.767 111.136 22.7598 111.188 23.7483C111.428 28.3466 113.633 31.8375 117.294 34.584C120.734 37.1623 124.093 39.8645 126.573 43.4617C126.955 43.6389 127.212 43.9312 127.31 44.3477ZM8.97463 58.0185V58.054C8.97831 58.0503 8.982 58.0451 8.98631 58.039C8.99241 58.0304 8.99978 58.02 9.01019 58.0097H8.98353L8.97463 58.0185ZM4.91309 265.606C4.91309 265.606 4.9131 265.615 4.92199 265.624C4.93087 265.633 4.93088 265.624 4.93088 265.624C4.92661 265.624 4.92438 265.622 4.92224 265.619C4.91992 265.616 4.9177 265.611 4.91309 265.606ZM36.5344 259.972V259.963C36.5298 259.963 36.5276 259.965 36.5253 259.969C36.5231 259.972 36.5209 259.976 36.5166 259.98H36.5255C36.5255 259.972 36.5344 259.972 36.5344 259.972ZM104.63 221.918C104.63 221.918 104.63 221.918 104.63 221.918C104.63 221.919 104.63 221.92 104.63 221.92C104.63 221.919 104.63 221.919 104.63 221.918ZM104.638 221.883C104.637 221.888 104.635 221.892 104.634 221.897C104.635 221.893 104.636 221.888 104.638 221.883ZM104.628 221.941C104.628 221.949 104.627 221.956 104.627 221.964C104.628 221.977 104.631 221.991 104.638 222.007C104.63 221.998 104.63 221.998 104.621 221.998C104.621 222.01 104.625 222.023 104.631 222.035C104.633 222.041 104.636 222.046 104.638 222.051V222.007C104.633 221.986 104.628 221.966 104.628 221.941ZM87.6013 233.312V233.268C87.5925 233.277 87.5836 233.277 87.5836 233.277C87.5836 233.282 87.587 233.288 87.5917 233.295C87.5946 233.3 87.598 233.305 87.6013 233.312ZM104.768 79.6688C105.161 79.4903 105.554 79.3119 105.935 79.119C105.989 79.181 106.033 79.243 106.06 79.2873C106.547 78.9025 107.05 78.5329 107.553 78.1632C108.589 77.4008 109.626 76.6384 110.53 75.7433C115.783 70.5337 117.018 62.675 114.147 56.2338C112.325 52.1494 109.33 49.1636 105.269 47.2321C102.683 46.0094 101.732 44.1223 102.025 41.2871C102.531 36.4762 101.278 32.0994 98.2478 28.3605C94.915 24.2406 90.4802 22.0079 85.1389 21.7599C81.6195 21.6004 78.3133 22.38 75.3005 24.2583C73.052 25.6582 70.5102 25.5608 68.3239 23.9748C61.8717 19.2968 52.5932 19.6778 46.5676 24.8874C42.6838 28.2453 40.5864 32.4892 40.2842 37.6191C40.0887 40.8973 38.4445 43.1831 35.3962 44.3969C32.9077 45.3893 30.8102 46.8954 29.015 48.8446C24.1536 54.1074 22.9982 62.0016 26.1621 68.425C27.9396 72.0222 30.6147 74.7422 34.2052 76.5762C36.9959 78.0026 38.0002 80.067 37.538 83.1679C36.6137 89.4674 38.4356 94.8542 43.1193 99.1867C48.6739 104.325 57.3835 105.548 64.4579 101.092C67.2841 99.3107 69.8792 99.4082 72.5632 101.207C79.522 105.885 88.8627 105.025 94.8883 99.1069C98.6121 95.4567 100.327 90.9647 100.185 85.7728C100.132 83.8413 100.736 82.1491 102.274 81.015C103.027 80.4596 103.898 80.0639 104.768 79.6688ZM77.7347 55.9133C78.6291 56.4072 79.5047 56.8907 79.8509 57.926C80.4374 58.7943 80.4108 59.7157 80.2952 60.7081C80.1619 61.9484 80.073 63.2154 80.1175 64.4647C80.1974 66.7948 78.9621 68.9212 76.758 69.6566C75.0117 70.2421 73.4781 71.1741 71.9356 72.1114C71.751 72.2235 71.5663 72.3357 71.3812 72.4475C69.6037 73.5195 67.9151 73.3777 66.182 72.2171C64.6268 71.1716 62.9826 70.259 61.3118 69.4085C60.423 68.9478 59.0188 67.1049 59.3921 65.581C59.857 63.6909 59.9241 61.7771 59.9913 59.859C60.0064 59.4304 60.0214 59.0016 60.0409 58.5728C60.112 57.0666 61.1607 56.0477 62.4316 55.6313C64.369 54.9934 66.2709 54.3466 67.9329 53.124C68.5017 52.6987 69.2304 52.424 69.9237 52.2557C71.1768 51.9456 72.181 52.5569 73.1942 53.2303C74.6073 54.1694 76.1004 55.0111 77.5934 55.8351C77.6405 55.8612 77.6877 55.8873 77.7347 55.9133Z" fill="#F4C100"/>
<path d="M77.6406 55.9302C76.1475 55.1063 74.6544 54.2734 73.2413 53.3254C72.2281 52.6521 71.2239 52.0407 69.9708 52.3508C69.2775 52.5192 68.5488 52.7938 67.98 53.2191C66.318 54.4418 64.4161 55.0885 62.4787 55.7265C61.2078 56.1429 60.1591 57.1618 60.088 58.668C59.9813 61.0158 60.008 63.3637 59.4392 65.6761C59.0659 67.2 60.4701 69.0429 61.3589 69.5036C63.0208 70.3542 64.6739 71.2668 66.2292 72.3122C67.9622 73.4729 69.6508 73.6146 71.4283 72.5426C73.1613 71.4971 74.8499 70.4073 76.8052 69.7517C79.0092 69.0163 80.2446 66.89 80.1646 64.5598C80.1202 63.3105 80.209 62.0436 80.3423 60.8032C80.449 59.8286 80.4757 58.9072 79.8891 58.03C79.5336 56.9314 78.5826 56.453 77.6406 55.9302Z" fill="#F20079"/>
</svg>
