<svg width="46" height="47" viewBox="0 0 46 47" fill="none" xmlns="http://www.w3.org/2000/svg">
<path d="M40.1444 16.2641C40.1251 14.7809 39.8533 13.3124 39.3413 11.9244C38.8973 10.7536 38.2192 9.69032 37.3502 8.80248C36.4813 7.91463 35.4406 7.22175 34.2947 6.7681C32.9537 6.25376 31.537 5.97564 30.1049 5.9456C28.2611 5.86139 27.6765 5.83789 22.996 5.83789C18.3155 5.83789 17.7156 5.83789 15.8852 5.9456C14.4537 5.97586 13.0377 6.25397 11.6972 6.7681C10.5512 7.22143 9.51036 7.9142 8.64136 8.80209C7.77237 9.68997 7.09434 10.7534 6.65065 11.9244C6.14624 13.2935 5.87464 14.7407 5.84757 16.2034C5.76515 18.0892 5.74023 18.6865 5.74023 23.4688C5.74023 28.251 5.74023 28.862 5.84757 30.7342C5.87632 32.199 6.14657 33.6443 6.65065 35.0171C7.09508 36.1877 7.77362 37.2507 8.6429 38.1382C9.51219 39.0257 10.5531 39.7182 11.6992 40.1714C13.0359 40.7064 14.4522 41.0044 15.8871 41.0526C17.7328 41.1368 18.3174 41.1623 22.9979 41.1623C27.6784 41.1623 28.2783 41.1623 30.1087 41.0526C31.5408 41.0238 32.9576 40.7464 34.2986 40.2321C35.4441 39.7779 36.4845 39.0849 37.3534 38.1971C38.2223 37.3093 38.9006 36.2463 39.3452 35.0758C39.8492 33.705 40.1195 32.2597 40.1482 30.7929C40.2306 28.909 40.2556 28.3117 40.2556 23.5275C40.2517 18.7453 40.2517 18.1382 40.1444 16.2641ZM22.9845 32.5123C18.0893 32.5123 14.1237 28.4606 14.1237 23.459C14.1237 18.4574 18.0893 14.4056 22.9845 14.4056C25.3345 14.4056 27.5883 15.3594 29.25 17.0573C30.9117 18.7551 31.8452 21.0579 31.8452 23.459C31.8452 25.8601 30.9117 28.1628 29.25 29.8607C27.5883 31.5585 25.3345 32.5123 22.9845 32.5123ZM32.1979 16.1818C31.9265 16.1821 31.6577 16.1276 31.4069 16.0216C31.1561 15.9156 30.9283 15.7601 30.7363 15.5641C30.5444 15.368 30.3922 15.1351 30.2885 14.8789C30.1848 14.6227 30.1315 14.348 30.1317 14.0707C30.1317 13.7936 30.1852 13.5192 30.2889 13.2632C30.3927 13.0072 30.5448 12.7746 30.7366 12.5787C30.9284 12.3827 31.1561 12.2273 31.4066 12.1212C31.6572 12.0152 31.9257 11.9606 32.1969 11.9606C32.4682 11.9606 32.7367 12.0152 32.9873 12.1212C33.2378 12.2273 33.4655 12.3827 33.6573 12.5787C33.849 12.7746 34.0012 13.0072 34.1049 13.2632C34.2087 13.5192 34.2622 13.7936 34.2622 14.0707C34.2622 15.2379 33.3383 16.1818 32.1979 16.1818Z" fill="#242424"/>
<path d="M22.9882 29.3409C26.167 29.3409 28.7439 26.7079 28.7439 23.46C28.7439 20.2121 26.167 17.5791 22.9882 17.5791C19.8094 17.5791 17.2324 20.2121 17.2324 23.46C17.2324 26.7079 19.8094 29.3409 22.9882 29.3409Z" fill="#242424"/>
</svg>
