<svg width="16" height="16" viewBox="0 0 16 16" fill="none" xmlns="http://www.w3.org/2000/svg">
<path d="M13.4307 5.51299L14.4727 4.47099L13.53 3.52832L12.3913 4.66632C11.6913 4.24632 10.8753 3.99965 10.0007 3.99965C7.42798 3.99965 5.33398 6.09299 5.33398 8.66632C5.33398 11.2397 7.42798 13.333 10.0007 13.333C12.5733 13.333 14.6673 11.2397 14.6673 8.66632C14.6668 7.497 14.2252 6.37092 13.4307 5.51299ZM10.0007 11.9997C8.16265 11.9997 6.66732 10.5043 6.66732 8.66632C6.66732 6.82832 8.16265 5.33299 10.0007 5.33299C11.8387 5.33299 13.334 6.82832 13.334 8.66632C13.334 10.5043 11.8387 11.9997 10.0007 11.9997Z" fill="white"/>
<path d="M9.33398 6.66667H10.6673V9.33333H9.33398V6.66667ZM8.66732 2H11.334V3.33333H8.66732V2ZM2.00065 5.33333H4.66732V6.66667H2.00065V5.33333ZM2.00065 10.6667H4.66732V12H2.00065V10.6667ZM1.33398 8H3.99398V9.33333H1.33398V8Z" fill="white"/>
</svg>
