<svg width="32" height="32" viewBox="0 0 32 32" fill="none" xmlns="http://www.w3.org/2000/svg">
<path d="M28.5915 22.3852C28.1615 22.6228 27.6909 22.8028 27.3076 23.1118C26.7685 23.5464 26.5566 24.1949 26.5753 24.9351C26.6252 26.9248 26.0238 28.6463 24.7181 30.0452C22.6053 32.3133 19.3302 32.6427 16.8902 30.8499C15.9491 30.1606 15.0391 30.1233 14.0482 30.8058C11.5677 32.5136 8.51382 32.0451 6.56619 30.0757C4.92395 28.4154 4.28513 26.351 4.60921 23.9369C4.77126 22.7485 4.41913 21.9573 3.44064 21.4107C2.18169 20.7078 1.24371 19.6654 0.620468 18.2869C-0.488901 15.8252 -0.0837981 12.7999 1.62077 10.7831C2.25024 10.0361 2.98567 9.45887 3.85821 9.07859C4.92707 8.61342 5.50356 7.7374 5.57212 6.4811C5.67807 4.51517 6.41349 2.88877 7.77527 1.60192C9.88805 -0.394579 13.1414 -0.540583 15.4037 1.25219C16.1703 1.85996 17.0616 1.89731 17.85 1.36084C18.9064 0.641016 20.0656 0.342221 21.2996 0.403338C23.1724 0.498409 24.7274 1.35405 25.896 2.93291C26.9586 4.36577 27.398 6.0431 27.2204 7.8868C27.1176 8.97333 27.451 9.69655 28.3578 10.1651C29.7819 10.9053 30.8321 12.0496 31.4709 13.6148C32.4774 16.0833 32.0443 19.095 30.2026 21.0915C29.732 21.6008 29.1587 21.9981 28.6351 22.4497C28.6258 22.4327 28.6102 22.4089 28.5915 22.3852Z" fill="#F20079"/>
</svg>
